<svg width="50" height="46" viewBox="0 0 50 46" fill="none" xmlns="http://www.w3.org/2000/svg">
<path d="M17.4188 23.4516L40.55 0L50 9.48018L26.8709 32.936L14.5834 35.5455L17.4188 23.4516Z" fill="#FFC300"/>
<path d="M14.5833 16.7272H18.2146L22.3354 12.5454H14.5833V16.7272Z" fill="#FFC300"/>
<path d="M37.5 28.1227L41.6667 23.8928V33.4545H37.5V28.1227Z" fill="#FFC300"/>
<path d="M27.0833 41.8181V46H14.5833V41.8181H27.0833Z" fill="#FFC300"/>
<path d="M10.4167 41.8181H4.16667V37.6363H0V46H10.4167V41.8181Z" fill="#FFC300"/>
<path d="M37.5 41.8181V37.6363H41.6667V46H31.25V41.8181H37.5Z" fill="#FFC300"/>
<path d="M0 33.4545H4.16667V25.0909H0V33.4545Z" fill="#FFC300"/>
<path d="M4.16667 16.7272V20.909H0V12.5454H10.4167V16.7272H4.16667Z" fill="#FFC300"/>
</svg>
