<svg width="705" height="620" xmlns="http://www.w3.org/2000/svg">
 <defs>
  <linearGradient y2="0" x2="0.94993" y1="0.89986" x1="0.94993" id="paint0_linear">
   <stop stop-color="white"/>
   <stop stop-color="#DDDDFF" offset="1"/>
  </linearGradient>
 </defs>
 <g>
  <title>Layer 1</title>
  <path id="svg_1" fill="url(#paint0_linear)" d="m1.07453,278.095c-0.79557,2.681 -1.06801,27.695 -1.07453,60.465l0,2.591c0.01377,67.459 1.09699,294.299 1.07598,299.918c-0.1268,33.347 19.71242,68.353 69.47982,102.585c72.9242,50.163 127.0432,30.372 179.5362,18.447c43.621,-9.908 84.737,-19.817 130.908,5.899c101.734,56.664 171.729,-3.169 278.732,-73.926c28.455,-18.817 41.879,-41.079 43.434,-65.137c0.406,-6.265 1.307,-79.435 1.315,-145.36l0,-1.881c-0.006,-52.141 -0.582,-99.289 -2.417,-104.528c-20.366,-58.141 -99.462,-48.075 -190.809,-97.041c-98.309,-52.698 -187.225,-83.17 -266.122,-83.165c-43.502,0.002 -83.969,9.268 -121.262,29.183c-55.9048,29.853 -109.0595,5.706 -122.79647,51.95z" clip-rule="evenodd" fill-rule="evenodd" opacity="0.13972"/>
  <path id="svg_2" fill="#C59FFF" d="m659.732,461.199c-107.002,70.757 -174.995,9.558 -276.729,-47.106c-101.734,-56.664 -178.924,59.634 -312.4476,-32.213c-133.5247,-91.847 -51.6121,-189.252 53.3156,-245.284c104.928,-56.0326 234.87,-27.772 387.384,53.982c149.933,80.369 255.48,199.864 148.477,270.621z" clip-rule="evenodd" fill-rule="evenodd"/>
  <path id="svg_3" fill="#DDDDFC" d="m241.283,297.197c0.202,3.188 4.452,5.413 4.452,5.413l196.579,109.224c0,0 5.62,3.56 12.39,0c7.27,-3.821 157.111,-91.8 157.111,-91.8c0,0 6.18,-2.837 6.616,-7.906c0.012,0.217 0.026,0.433 0.026,0.665l0,8.01c0,5.421 -6.642,8.467 -6.642,8.467c0,0 -149.841,83.067 -157.111,86.889c-6.77,3.56 -12.39,0 -12.39,0l-196.579,-109.224c0,0 -4.471,-2.332 -4.471,-5.645l0,-3.085c0.004,-0.078 0.007,-0.94 0.012,-1.551c0.003,0.29 0.006,0.517 0.007,0.543z" clip-rule="evenodd" fill-rule="evenodd"/>
  <path id="svg_4" fill="#F6F6FF" d="m245.096,290.705l162.986,-95.604c5.876,-3.191 10.091,0 10.091,0l193.642,107.752c0,0 6.641,3.558 6.641,8.713c0,0.191 -0.01,0.377 -0.026,0.562c-0.435,5.068 -6.615,7.906 -6.615,7.906c0,0 -149.841,87.978 -157.111,91.801c-6.77,3.559 -12.39,0 -12.39,0l-196.58,-109.225c0,0 -4.248,-2.225 -4.451,-5.414c-0.001,-0.025 -0.004,-0.252 -0.007,-0.542c-0.005,-0.579 -0.012,-1.419 -0.012,-1.471c0,-2.556 3.832,-4.478 3.832,-4.478z" clip-rule="evenodd" fill-rule="evenodd"/>
  <path id="svg_5" fill="#DDDDFC" d="m625.936,303.515c0.169,-0.099 0.33,-0.204 0.486,-0.314c4.274,-2.999 3.572,-9.546 3.572,-9.546c0,0 0.006,-163.809 -0.39,-171.762c-0.369,-7.406 -6.461,-10.159 -6.461,-10.159l-199.505,-109.12561c0,0 -4.191,-2.32269 -7.127,-0.82695c-0.024,0.01254 -0.227,0.12819 -0.487,0.27728c-0.141,0.0822 -0.3,0.17277 -0.458,0.26334c0,0 0.001,0 0.001,-0.0007c0.81,-0.51623 2.418,-1.29162 2.936,-1.5891c0.258,-0.14908 0.462,-0.26473 0.485,-0.27657c2.937,-1.49644 8.229,1.1697 8.229,1.1697l199.505,109.12661c0,0 6.091,2.752 6.46,10.159c0.397,7.953 0.39,171.761 0.39,171.761c0,0 0.703,6.547 -3.572,9.546c-0.155,0.11 -0.315,0.215 -0.485,0.314c-4.577,2.688 -9.057,1.888 -9.057,1.888l-0.001,0c1.814,0.223 3.787,0.09 5.479,-0.905z" clip-rule="evenodd" fill-rule="evenodd"/>
  <path id="svg_6" fill="#F6F6FF" d="m414.711,2.81684c0.035,-0.02021 0.438,-0.25359 0.855,-0.49464c0.158,-0.09056 0.316,-0.18183 0.458,-0.26334c0.26,-0.14908 0.462,-0.26473 0.486,-0.27727c2.937,-1.49574 7.129,0.82694 7.129,0.82694l199.504,109.12547c0,0 6.092,2.753 6.46,10.159c0.398,7.953 0.39,171.762 0.39,171.762c0,0 0.704,6.547 -3.571,9.546c-0.156,0.109 -0.317,0.215 -0.486,0.315c-1.692,0.994 -3.665,1.127 -5.478,0.904c-3.093,-0.382 -5.723,-1.807 -5.723,-1.807l-196.665,-109.871c0,0 -5.033,-1.792 -5.261,-8.274l-0.076,-176.17536c0,0 -0.291,-4.14378 1.978,-5.4758z" clip-rule="evenodd" fill-rule="evenodd"/>
  <path id="svg_7" fill="#DDDDFC" d="m563.872,307.527l-0.032,-0.238c0.004,0.08 0.015,0.158 0.032,0.238z" clip-rule="evenodd" fill-rule="evenodd"/>
  <path id="svg_8" fill="#DDDDFC" d="m563.838,307.276l0.002,0.013c0,-0.004 0,-0.009 0,-0.013l-0.002,0z" clip-rule="evenodd" fill-rule="evenodd"/>
  <path id="svg_9" fill="#DDDDFC" d="m590.246,309.011l-10.048,5.539c-1.816,1.001 -2.993,0.906 -4.497,0.12l-10.815,-5.927c-0.611,-0.363 -0.918,-0.786 -1.014,-1.216l0.115,0.853c0.076,0.437 0.464,0.801 0.942,1.083l10.816,5.928c1.503,0.786 2.68,0.882 4.495,-0.119l10.049,-5.54c0.62,-0.341 1.212,-0.581 1.273,-1.266l0.081,-1.256l-0.005,0c-0.031,0.689 -0.532,1.327 -1.392,1.801z" clip-rule="evenodd" fill-rule="evenodd"/>
  <path id="svg_10" fill="#DDDDFC" d="m544.036,296.521l-0.032,-0.238c0.004,0.079 0.015,0.159 0.032,0.238z" clip-rule="evenodd" fill-rule="evenodd"/>
  <path id="svg_11" fill="#DDDDFC" d="m544.002,296.27l0.002,0.013l0,-0.013l-0.002,0z" clip-rule="evenodd" fill-rule="evenodd"/>
  <path id="svg_12" fill="#DDDDFC" d="m570.409,298.006l-10.047,5.539c-1.815,1 -2.993,0.904 -4.497,0.118l-10.815,-5.927c-0.611,-0.361 -0.917,-0.784 -1.014,-1.215l0.116,0.854c0.076,0.436 0.462,0.799 0.941,1.083l10.817,5.928c1.502,0.785 2.679,0.881 4.494,-0.12l10.05,-5.539c0.618,-0.342 1.212,-0.582 1.271,-1.267l0.082,-1.256l-0.005,0.001c-0.031,0.688 -0.532,1.326 -1.393,1.801z" clip-rule="evenodd" fill-rule="evenodd"/>
  <path id="svg_13" fill="#DDDDFC" d="m550.79,286.84l-10.048,5.54c-1.815,1 -2.993,0.904 -4.497,0.119l-10.815,-5.928c-0.611,-0.36 -0.918,-0.785 -1.014,-1.217l0.115,0.856c0.076,0.436 0.464,0.799 0.942,1.082l10.815,5.928c1.504,0.786 2.681,0.881 4.496,-0.119l10.049,-5.54c0.619,-0.341 1.211,-0.581 1.272,-1.266l0.082,-1.256l-0.005,0c-0.031,0.688 -0.532,1.327 -1.392,1.801z" clip-rule="evenodd" fill-rule="evenodd"/>
  <path id="svg_14" fill="#DDDDFC" d="m505.277,273.785l-0.032,-0.238c0.004,0.08 0.015,0.158 0.032,0.238z" clip-rule="evenodd" fill-rule="evenodd"/>
  <path id="svg_15" fill="#DDDDFC" d="m505.243,273.534l0.002,0.013l0,-0.013l-0.002,0z" clip-rule="evenodd" fill-rule="evenodd"/>
  <path id="svg_16" fill="#DDDDFC" d="m531.651,275.269l-10.048,5.539c-1.816,1.001 -2.993,0.905 -4.496,0.12l-10.816,-5.927c-0.611,-0.363 -0.918,-0.786 -1.014,-1.217l0.115,0.854c0.076,0.437 0.464,0.8 0.942,1.083l10.816,5.927c1.503,0.786 2.68,0.882 4.496,-0.118l10.048,-5.539c0.619,-0.342 1.212,-0.583 1.273,-1.267l0.081,-1.256l-0.006,0c-0.03,0.689 -0.531,1.327 -1.391,1.801z" clip-rule="evenodd" fill-rule="evenodd"/>
  <path id="svg_17" fill="#DDDDFC" d="m485.441,262.779l-0.033,-0.238c0.005,0.079 0.016,0.158 0.033,0.238z" clip-rule="evenodd" fill-rule="evenodd"/>
  <path id="svg_18" fill="#DDDDFC" d="m485.407,262.528l0.002,0.013l0,-0.013l-0.002,0z" clip-rule="evenodd" fill-rule="evenodd"/>
  <path id="svg_19" fill="#DDDDFC" d="m511.815,264.264l-10.048,5.539c-1.815,1 -2.992,0.905 -4.496,0.119l-10.816,-5.928c-0.612,-0.36 -0.918,-0.784 -1.014,-1.215l0.115,0.854c0.076,0.436 0.463,0.8 0.943,1.083l10.815,5.928c1.504,0.785 2.68,0.881 4.495,-0.12l10.049,-5.539c0.619,-0.342 1.213,-0.581 1.272,-1.268l0.081,-1.255l-0.004,0.001c-0.03,0.688 -0.531,1.326 -1.392,1.801z" clip-rule="evenodd" fill-rule="evenodd"/>
  <path id="svg_20" fill="#DDDDFC" d="m492.194,253.098l-10.048,5.539c-1.814,1.001 -2.992,0.905 -4.496,0.119l-10.816,-5.928c-0.61,-0.36 -0.918,-0.785 -1.013,-1.216l0.115,0.856c0.076,0.436 0.464,0.799 0.942,1.082l10.815,5.927c1.504,0.786 2.681,0.882 4.496,-0.118l10.049,-5.54c0.62,-0.341 1.211,-0.582 1.272,-1.266l0.081,-1.256l-0.005,0c-0.03,0.688 -0.531,1.326 -1.392,1.801z" clip-rule="evenodd" fill-rule="evenodd"/>
  <path id="svg_21" fill="#DDDDFC" d="m446.216,240.361l0.001,0.012c0,-0.005 0.001,-0.008 0,-0.012l-0.001,0z" clip-rule="evenodd" fill-rule="evenodd"/>
  <path id="svg_22" fill="#DDDDFC" d="m472.623,242.096l-10.048,5.538c-1.815,1.001 -2.992,0.905 -4.497,0.12l-10.815,-5.927c-0.61,-0.362 -0.917,-0.786 -1.013,-1.217l0.115,0.855c0.074,0.436 0.463,0.799 0.942,1.083l10.815,5.926c1.503,0.787 2.681,0.883 4.496,-0.118l10.048,-5.539c0.62,-0.342 1.211,-0.583 1.272,-1.268l0.083,-1.255l-0.005,0c-0.031,0.689 -0.533,1.327 -1.393,1.802z" clip-rule="evenodd" fill-rule="evenodd"/>
  <path id="svg_23" fill="#DDDDFC" d="m426.414,229.605l-0.033,-0.238c0.005,0.079 0.016,0.158 0.033,0.238z" clip-rule="evenodd" fill-rule="evenodd"/>
  <path id="svg_24" fill="#DDDDFC" d="m426.38,229.354l0.001,0.013l0,-0.013l-0.001,0z" clip-rule="evenodd" fill-rule="evenodd"/>
  <path id="svg_25" fill="#DDDDFC" d="m452.787,231.09l-10.047,5.539c-1.815,1.001 -2.994,0.904 -4.497,0.118l-10.816,-5.927c-0.61,-0.361 -0.917,-0.785 -1.013,-1.215l0.115,0.854c0.076,0.437 0.463,0.799 0.942,1.083l10.816,5.927c1.503,0.785 2.68,0.882 4.495,-0.119l10.049,-5.54c0.619,-0.34 1.211,-0.581 1.272,-1.266l0.081,-1.256l-0.004,0.001c-0.031,0.688 -0.532,1.326 -1.393,1.801z" clip-rule="evenodd" fill-rule="evenodd"/>
  <path id="svg_26" fill="#DDDDFC" d="m433.168,219.924l-10.049,5.539c-1.814,1.001 -2.992,0.905 -4.497,0.119l-10.816,-5.927c-0.61,-0.361 -0.916,-0.786 -1.012,-1.216l0.115,0.855c0.075,0.436 0.464,0.799 0.941,1.082l10.816,5.927c1.502,0.787 2.681,0.882 4.496,-0.119l10.047,-5.539c0.62,-0.341 1.213,-0.582 1.273,-1.266l0.081,-1.256l-0.003,0c-0.031,0.688 -0.532,1.327 -1.392,1.801z" clip-rule="evenodd" fill-rule="evenodd"/>
  <path id="svg_27" fill="#DDDDFC" d="m544.358,318.692l-0.032,-0.238c0.005,0.081 0.015,0.159 0.032,0.238z" clip-rule="evenodd" fill-rule="evenodd"/>
  <path id="svg_28" fill="#DDDDFC" d="m544.325,318.442l0.001,0.013c0,-0.005 0.001,-0.009 0,-0.013l-0.001,0z" clip-rule="evenodd" fill-rule="evenodd"/>
  <path id="svg_29" fill="#DDDDFC" d="m524.522,307.687l-0.032,-0.238c0.005,0.079 0.016,0.158 0.032,0.238z" clip-rule="evenodd" fill-rule="evenodd"/>
  <path id="svg_30" fill="#DDDDFC" d="m524.488,307.436l0.002,0.013c0.001,-0.004 0,-0.009 0,-0.013l-0.002,0z" clip-rule="evenodd" fill-rule="evenodd"/>
  <path id="svg_31" fill="#DDDDFC" d="m550.896,309.171l-10.047,5.539c-1.815,1.002 -2.993,0.905 -4.497,0.119l-10.816,-5.927c-0.61,-0.361 -0.917,-0.785 -1.014,-1.215l0.116,0.854c0.076,0.437 0.462,0.799 0.942,1.082l10.816,5.928c1.502,0.785 2.68,0.882 4.495,-0.119l10.049,-5.54c0.619,-0.342 1.211,-0.581 1.272,-1.267l0.081,-1.255l-0.004,0c-0.03,0.689 -0.532,1.327 -1.393,1.801z" clip-rule="evenodd" fill-rule="evenodd"/>
  <path id="svg_32" fill="#DDDDFC" d="m531.276,298.006l-10.048,5.539c-1.815,1 -2.993,0.905 -4.496,0.119l-10.817,-5.928c-0.61,-0.36 -0.916,-0.785 -1.013,-1.216l0.115,0.855c0.075,0.436 0.463,0.799 0.942,1.082l10.815,5.928c1.504,0.787 2.683,0.882 4.497,-0.119l10.048,-5.539c0.619,-0.342 1.213,-0.582 1.273,-1.267l0.081,-1.255l-0.005,0c-0.031,0.687 -0.532,1.326 -1.392,1.801z" clip-rule="evenodd" fill-rule="evenodd"/>
  <path id="svg_33" fill="#DDDDFC" d="m485.764,284.95l-0.033,-0.237c0.004,0.08 0.015,0.158 0.033,0.237z" clip-rule="evenodd" fill-rule="evenodd"/>
  <path id="svg_34" fill="#DDDDFC" d="m485.73,284.7l0.001,0.013c0,-0.005 0.001,-0.009 0,-0.013l-0.001,0z" clip-rule="evenodd" fill-rule="evenodd"/>
  <path id="svg_35" fill="#DDDDFC" d="m512.137,286.435l-10.048,5.538c-1.815,1.001 -2.992,0.906 -4.496,0.121l-10.816,-5.928c-0.61,-0.363 -0.918,-0.785 -1.013,-1.216l0.115,0.853c0.075,0.437 0.463,0.801 0.941,1.084l10.816,5.928c1.502,0.786 2.681,0.881 4.496,-0.119l10.049,-5.54c0.619,-0.342 1.211,-0.582 1.272,-1.267l0.081,-1.255l-0.004,0c-0.031,0.688 -0.532,1.326 -1.393,1.801z" clip-rule="evenodd" fill-rule="evenodd"/>
  <path id="svg_36" fill="#DDDDFC" d="m465.927,273.945l-0.032,-0.238c0.005,0.079 0.016,0.158 0.032,0.238z" clip-rule="evenodd" fill-rule="evenodd"/>
  <path id="svg_37" fill="#DDDDFC" d="m465.893,273.694l0.002,0.013c0.001,-0.005 0,-0.009 0,-0.013l-0.002,0z" clip-rule="evenodd" fill-rule="evenodd"/>
  <path id="svg_38" fill="#DDDDFC" d="m492.301,275.429l-10.048,5.54c-1.814,1 -2.992,0.904 -4.495,0.118l-10.817,-5.928c-0.61,-0.361 -0.917,-0.784 -1.014,-1.215l0.116,0.854c0.076,0.437 0.462,0.8 0.942,1.083l10.816,5.928c1.502,0.785 2.68,0.882 4.495,-0.119l10.049,-5.54c0.619,-0.341 1.211,-0.581 1.271,-1.267l0.082,-1.255l-0.005,0c-0.03,0.688 -0.531,1.327 -1.392,1.801z" clip-rule="evenodd" fill-rule="evenodd"/>
  <path id="svg_39" fill="#DDDDFC" d="m472.681,264.264l-10.047,5.539c-1.816,1 -2.994,0.905 -4.497,0.119l-10.817,-5.927c-0.61,-0.361 -0.916,-0.786 -1.013,-1.217l0.116,0.856c0.074,0.435 0.464,0.799 0.941,1.081l10.816,5.928c1.503,0.786 2.681,0.882 4.496,-0.119l10.048,-5.539c0.619,-0.342 1.213,-0.582 1.272,-1.267l0.082,-1.255l-0.005,0c-0.031,0.687 -0.532,1.326 -1.392,1.801z" clip-rule="evenodd" fill-rule="evenodd"/>
  <path id="svg_40" fill="#DDDDFC" d="m426.736,251.776l-0.032,-0.237c0.005,0.079 0.015,0.158 0.032,0.237z" clip-rule="evenodd" fill-rule="evenodd"/>
  <path id="svg_41" fill="#DDDDFC" d="m426.702,251.526l0.002,0.013c0,-0.005 0,-0.009 0,-0.013l-0.002,0z" clip-rule="evenodd" fill-rule="evenodd"/>
  <path id="svg_42" fill="#DDDDFC" d="m453.109,253.261l-10.047,5.538c-1.815,1.002 -2.993,0.905 -4.496,0.121l-10.817,-5.928c-0.61,-0.362 -0.917,-0.785 -1.013,-1.216l0.115,0.854c0.076,0.437 0.464,0.8 0.941,1.083l10.817,5.928c1.502,0.786 2.681,0.881 4.495,-0.12l10.049,-5.539c0.619,-0.342 1.211,-0.582 1.273,-1.267l0.081,-1.255l-0.005,0c-0.03,0.687 -0.532,1.326 -1.393,1.801z" clip-rule="evenodd" fill-rule="evenodd"/>
  <path id="svg_43" fill="#DDDDFC" d="m406.9,240.77l-0.032,-0.237c0.004,0.079 0.016,0.159 0.032,0.237z" clip-rule="evenodd" fill-rule="evenodd"/>
  <path id="svg_44" fill="#DDDDFC" d="m406.866,240.52l0.002,0.013l0,-0.013l-0.002,0z" clip-rule="evenodd" fill-rule="evenodd"/>
  <path id="svg_45" fill="#DDDDFC" d="m433.273,242.256l-10.047,5.539c-1.815,1 -2.992,0.904 -4.496,0.118l-10.816,-5.928c-0.61,-0.36 -0.917,-0.784 -1.014,-1.215l0.115,0.855c0.077,0.436 0.463,0.798 0.943,1.082l10.816,5.928c1.502,0.785 2.68,0.882 4.495,-0.119l10.049,-5.539c0.619,-0.342 1.211,-0.582 1.271,-1.268l0.082,-1.256l-0.005,0.001c-0.031,0.688 -0.532,1.327 -1.393,1.802z" clip-rule="evenodd" fill-rule="evenodd"/>
  <path id="svg_46" fill="#DDDDFC" d="m523.275,329.858l-0.032,-0.238c0.003,0.079 0.015,0.158 0.032,0.238z" clip-rule="evenodd" fill-rule="evenodd"/>
  <path id="svg_47" fill="#DDDDFC" d="m523.241,329.607l0.002,0.014c-0.001,-0.005 0.001,-0.009 -0.001,-0.014l-0.001,0z" clip-rule="evenodd" fill-rule="evenodd"/>
  <path id="svg_48" fill="#DDDDFC" d="m503.439,318.852l-0.032,-0.237c0.004,0.078 0.016,0.158 0.032,0.237z" clip-rule="evenodd" fill-rule="evenodd"/>
  <path id="svg_49" fill="#DDDDFC" d="m503.405,318.601l0.002,0.014l0,-0.014l-0.002,0z" clip-rule="evenodd" fill-rule="evenodd"/>
  <path id="svg_50" fill="#DDDDFC" d="m529.813,320.337l-10.048,5.539c-1.815,1 -2.993,0.904 -4.496,0.118l-10.817,-5.927c-0.61,-0.361 -0.917,-0.784 -1.013,-1.215l0.115,0.854c0.076,0.436 0.463,0.799 0.943,1.083l10.816,5.928c1.502,0.785 2.679,0.881 4.495,-0.12l10.048,-5.539c0.619,-0.342 1.212,-0.582 1.273,-1.267l0.081,-1.256l-0.005,0.001c-0.031,0.688 -0.532,1.326 -1.392,1.801z" clip-rule="evenodd" fill-rule="evenodd"/>
  <path id="svg_51" fill="#DDDDFC" d="m510.193,309.171l-10.049,5.539c-1.814,1.002 -2.991,0.905 -4.496,0.12l-10.816,-5.928c-0.611,-0.361 -0.917,-0.785 -1.013,-1.216l0.115,0.855c0.076,0.436 0.464,0.799 0.941,1.082l10.817,5.928c1.502,0.786 2.68,0.882 4.496,-0.119l10.048,-5.54c0.619,-0.341 1.212,-0.581 1.271,-1.266l0.081,-1.256l-0.002,0c-0.032,0.688 -0.533,1.327 -1.393,1.801z" clip-rule="evenodd" fill-rule="evenodd"/>
  <path id="svg_52" fill="#DDDDFC" d="m464.68,296.116l-0.032,-0.238c0.003,0.08 0.015,0.158 0.032,0.238z" clip-rule="evenodd" fill-rule="evenodd"/>
  <path id="svg_53" fill="#DDDDFC" d="m464.646,295.865l0.002,0.014c-0.001,-0.006 0.001,-0.009 -0.001,-0.014l-0.001,0z" clip-rule="evenodd" fill-rule="evenodd"/>
  <path id="svg_54" fill="#DDDDFC" d="m491.053,297.6l-10.047,5.539c-1.816,1.001 -2.993,0.905 -4.497,0.12l-10.816,-5.927c-0.609,-0.363 -0.917,-0.786 -1.013,-1.216l0.115,0.853c0.075,0.437 0.463,0.8 0.943,1.084l10.814,5.927c1.503,0.785 2.682,0.882 4.497,-0.119l10.047,-5.539c0.62,-0.342 1.213,-0.582 1.274,-1.267l0.081,-1.255l-0.005,0c-0.031,0.688 -0.533,1.326 -1.393,1.8z" clip-rule="evenodd" fill-rule="evenodd"/>
  <path id="svg_55" fill="#DDDDFC" d="m444.844,285.11l-0.032,-0.238c0.004,0.079 0.015,0.159 0.032,0.238z" clip-rule="evenodd" fill-rule="evenodd"/>
  <path id="svg_56" fill="#DDDDFC" d="m444.81,284.859l0.002,0.014l0,-0.014l-0.002,0z" clip-rule="evenodd" fill-rule="evenodd"/>
  <path id="svg_57" fill="#DDDDFC" d="m471.218,286.595l-10.047,5.539c-1.816,1 -2.994,0.904 -4.497,0.118l-10.817,-5.927c-0.61,-0.361 -0.917,-0.784 -1.013,-1.215l0.116,0.854c0.075,0.436 0.462,0.799 0.942,1.083l10.816,5.928c1.502,0.785 2.679,0.881 4.495,-0.12l10.048,-5.539c0.619,-0.342 1.212,-0.582 1.273,-1.267l0.081,-1.256l-0.005,0.001c-0.031,0.688 -0.532,1.326 -1.392,1.801z" clip-rule="evenodd" fill-rule="evenodd"/>
  <path id="svg_58" fill="#DDDDFC" d="m451.598,275.429l-10.049,5.54c-1.814,1 -2.992,0.904 -4.496,0.118l-10.816,-5.927c-0.61,-0.361 -0.918,-0.786 -1.013,-1.216l0.115,0.854c0.075,0.437 0.463,0.8 0.941,1.083l10.816,5.927c1.503,0.787 2.681,0.882 4.497,-0.118l10.047,-5.54c0.62,-0.341 1.213,-0.582 1.273,-1.266l0.08,-1.256l-0.003,0c-0.031,0.688 -0.532,1.327 -1.392,1.801z" clip-rule="evenodd" fill-rule="evenodd"/>
  <path id="svg_59" fill="#DDDDFC" d="m405.653,262.942l-0.033,-0.238c0.004,0.08 0.016,0.158 0.033,0.238z" clip-rule="evenodd" fill-rule="evenodd"/>
  <path id="svg_60" fill="#DDDDFC" d="m405.619,262.691l0.001,0.013c0,-0.005 0.001,-0.008 0,-0.013l-0.001,0z" clip-rule="evenodd" fill-rule="evenodd"/>
  <path id="svg_61" fill="#DDDDFC" d="m432.026,264.426l-10.048,5.539c-1.815,1.002 -2.992,0.905 -4.496,0.12l-10.816,-5.928c-0.609,-0.362 -0.918,-0.785 -1.013,-1.215l0.115,0.853c0.075,0.438 0.463,0.801 0.941,1.084l10.816,5.927c1.503,0.785 2.682,0.882 4.496,-0.119l10.048,-5.539c0.62,-0.342 1.212,-0.582 1.273,-1.267l0.081,-1.256l-0.004,0c-0.031,0.689 -0.533,1.327 -1.393,1.801z" clip-rule="evenodd" fill-rule="evenodd"/>
  <path id="svg_62" fill="#DDDDFC" d="m385.817,251.937l-0.032,-0.239c0.004,0.079 0.015,0.159 0.032,0.239z" clip-rule="evenodd" fill-rule="evenodd"/>
  <path id="svg_63" fill="#DDDDFC" d="m385.783,251.685l0.002,0.014l0,-0.014l-0.002,0z" clip-rule="evenodd" fill-rule="evenodd"/>
  <path id="svg_64" fill="#DDDDFC" d="m412.19,253.421l-10.047,5.539c-1.815,1.001 -2.993,0.905 -4.496,0.118l-10.817,-5.927c-0.61,-0.36 -0.918,-0.784 -1.013,-1.214l0.115,0.853c0.075,0.437 0.463,0.8 0.942,1.082l10.815,5.929c1.503,0.785 2.681,0.881 4.497,-0.12l10.048,-5.539c0.619,-0.342 1.212,-0.581 1.271,-1.266l0.081,-1.256l-0.003,0c-0.031,0.688 -0.533,1.326 -1.393,1.801z" clip-rule="evenodd" fill-rule="evenodd"/>
  <path id="svg_65" fill="#DDDDFC" d="m413.653,231.267l-10.046,5.539c-1.816,1.001 -2.993,0.904 -4.497,0.118l-10.816,-5.927c-0.61,-0.361 -0.917,-0.784 -1.014,-1.215l0.115,0.854c0.077,0.437 0.463,0.799 0.943,1.082l10.816,5.929c1.502,0.785 2.679,0.881 4.495,-0.12l10.049,-5.539c0.619,-0.342 1.212,-0.582 1.271,-1.267l0.082,-1.256l-0.005,0.001c-0.031,0.687 -0.532,1.326 -1.393,1.801z" clip-rule="evenodd" fill-rule="evenodd"/>
  <path id="svg_66" fill="#DDDDFC" d="m392.57,242.432l-10.047,5.54c-1.815,1 -2.993,0.904 -4.496,0.118l-10.816,-5.928c-0.611,-0.36 -0.919,-0.784 -1.014,-1.214l0.115,0.853c0.075,0.437 0.463,0.8 0.943,1.084l10.815,5.927c1.503,0.785 2.68,0.882 4.496,-0.119l10.048,-5.54c0.62,-0.342 1.212,-0.581 1.271,-1.267l0.081,-1.255l-0.003,0.001c-0.031,0.687 -0.532,1.325 -1.393,1.8z" clip-rule="evenodd" fill-rule="evenodd"/>
  <path id="svg_67" fill="#DDDDFC" d="m570.481,320.256l-31.132,16.639c-1.815,1 -2.992,0.905 -4.495,0.119l-10.816,-5.928c-0.612,-0.36 -0.917,-0.785 -1.014,-1.216l0.115,0.855c0.075,0.436 0.465,0.799 0.942,1.082l10.817,5.928c1.502,0.786 2.68,0.882 4.496,-0.119l31.13,-16.639c0.619,-0.341 1.213,-0.582 1.273,-1.267l0.082,-1.255l-0.006,0c-0.031,0.688 -0.532,1.326 -1.392,1.801z" clip-rule="evenodd" fill-rule="evenodd"/>
  <path id="svg_68" fill="#DDDDFC" d="m503.762,341.023l-0.033,-0.237c0.004,0.08 0.015,0.158 0.033,0.237z" clip-rule="evenodd" fill-rule="evenodd"/>
  <path id="svg_69" fill="#DDDDFC" d="m503.728,340.773l0.001,0.013c0,-0.005 0.001,-0.009 0,-0.013l-0.001,0z" clip-rule="evenodd" fill-rule="evenodd"/>
  <path id="svg_70" fill="#DDDDFC" d="m530.135,342.508l-10.048,5.539c-1.815,1 -2.992,0.905 -4.495,0.12l-10.817,-5.927c-0.61,-0.363 -0.918,-0.786 -1.013,-1.217l0.114,0.854c0.076,0.436 0.464,0.8 0.941,1.084l10.817,5.926c1.503,0.786 2.681,0.882 4.496,-0.118l10.048,-5.539c0.62,-0.343 1.212,-0.583 1.273,-1.268l0.081,-1.254l-0.004,0c-0.032,0.687 -0.533,1.325 -1.393,1.8z" clip-rule="evenodd" fill-rule="evenodd"/>
  <path id="svg_71" fill="#DDDDFC" d="m483.926,330.018l-0.033,-0.238c0.004,0.079 0.016,0.158 0.033,0.238z" clip-rule="evenodd" fill-rule="evenodd"/>
  <path id="svg_72" fill="#DDDDFC" d="m483.892,329.767l0.001,0.013c0.002,-0.005 0,-0.009 0,-0.013l-0.001,0z" clip-rule="evenodd" fill-rule="evenodd"/>
  <path id="svg_73" fill="#DDDDFC" d="m510.298,331.503l-10.047,5.539c-1.815,1 -2.991,0.904 -4.496,0.118l-10.816,-5.927c-0.609,-0.361 -0.917,-0.785 -1.013,-1.215l0.114,0.853c0.077,0.437 0.464,0.8 0.943,1.084l10.816,5.927c1.503,0.786 2.679,0.882 4.495,-0.119l10.049,-5.539c0.619,-0.343 1.212,-0.582 1.272,-1.268l0.081,-1.255l-0.004,0.001c-0.031,0.688 -0.532,1.325 -1.394,1.801z" clip-rule="evenodd" fill-rule="evenodd"/>
  <path id="svg_74" fill="#DDDDFC" d="m490.679,320.337l-10.048,5.539c-1.815,1 -2.993,0.905 -4.496,0.119l-10.817,-5.927c-0.61,-0.361 -0.917,-0.786 -1.013,-1.216l0.115,0.854c0.076,0.436 0.464,0.799 0.942,1.082l10.816,5.928c1.502,0.787 2.68,0.881 4.496,-0.119l10.048,-5.539c0.619,-0.342 1.212,-0.582 1.273,-1.267l0.081,-1.255l-0.005,0c-0.03,0.688 -0.531,1.326 -1.392,1.801z" clip-rule="evenodd" fill-rule="evenodd"/>
  <path id="svg_75" fill="#DDDDFC" d="m445.166,307.281l-0.032,-0.238c0.004,0.081 0.015,0.159 0.032,0.238z" clip-rule="evenodd" fill-rule="evenodd"/>
  <path id="svg_76" fill="#DDDDFC" d="m445.133,307.031l0.001,0.013c0,-0.005 0.001,-0.009 0,-0.013l-0.001,0z" clip-rule="evenodd" fill-rule="evenodd"/>
  <path id="svg_77" fill="#DDDDFC" d="m471.54,308.766l-10.048,5.538c-1.815,1.001 -2.992,0.906 -4.496,0.121l-10.816,-5.927c-0.61,-0.363 -0.918,-0.786 -1.014,-1.217l0.116,0.854c0.075,0.436 0.463,0.8 0.942,1.084l10.815,5.926c1.503,0.786 2.681,0.882 4.496,-0.118l10.048,-5.54c0.619,-0.342 1.212,-0.582 1.273,-1.267l0.082,-1.254l-0.005,0c-0.032,0.687 -0.533,1.325 -1.393,1.8z" clip-rule="evenodd" fill-rule="evenodd"/>
  <path id="svg_78" fill="#DDDDFC" d="m425.331,296.276l-0.033,-0.238c0.004,0.079 0.016,0.158 0.033,0.238z" clip-rule="evenodd" fill-rule="evenodd"/>
  <path id="svg_79" fill="#DDDDFC" d="m425.297,296.025l0.001,0.013l0,-0.013l-0.001,0z" clip-rule="evenodd" fill-rule="evenodd"/>
  <path id="svg_80" fill="#DDDDFC" d="m451.703,297.76l-10.047,5.54c-1.815,1 -2.992,0.904 -4.496,0.118l-10.816,-5.927c-0.609,-0.361 -0.917,-0.785 -1.013,-1.215l0.114,0.853c0.076,0.437 0.464,0.8 0.942,1.084l10.817,5.927c1.502,0.786 2.679,0.882 4.495,-0.119l10.048,-5.54c0.619,-0.342 1.212,-0.581 1.273,-1.267l0.081,-1.255l-0.004,0.001c-0.032,0.688 -0.533,1.326 -1.394,1.8z" clip-rule="evenodd" fill-rule="evenodd"/>
  <path id="svg_81" fill="#DDDDFC" d="m432.084,286.595l-10.048,5.539c-1.815,1 -2.993,0.905 -4.496,0.119l-10.816,-5.927c-0.611,-0.361 -0.918,-0.786 -1.014,-1.217l0.116,0.855c0.075,0.436 0.463,0.799 0.941,1.082l10.816,5.928c1.503,0.787 2.681,0.881 4.496,-0.119l10.048,-5.539c0.619,-0.342 1.212,-0.582 1.273,-1.267l0.081,-1.255l-0.005,0c-0.031,0.687 -0.532,1.326 -1.392,1.801z" clip-rule="evenodd" fill-rule="evenodd"/>
  <path id="svg_82" fill="#DDDDFC" d="m386.14,274.107l-0.033,-0.237c0.004,0.08 0.014,0.158 0.033,0.237z" clip-rule="evenodd" fill-rule="evenodd"/>
  <path id="svg_83" fill="#DDDDFC" d="m386.105,273.857l0.002,0.013c-0.001,-0.005 0,-0.009 -0.001,-0.013l-0.001,0z" clip-rule="evenodd" fill-rule="evenodd"/>
  <path id="svg_84" fill="#DDDDFC" d="m412.513,275.592l-10.048,5.538c-1.816,1.001 -2.992,0.906 -4.497,0.121l-10.815,-5.927c-0.61,-0.363 -0.918,-0.786 -1.013,-1.217l0.113,0.854c0.077,0.436 0.465,0.8 0.942,1.084l10.817,5.926c1.503,0.786 2.68,0.882 4.496,-0.118l10.047,-5.539c0.62,-0.343 1.213,-0.583 1.274,-1.268l0.081,-1.254l-0.005,0c-0.031,0.687 -0.532,1.325 -1.392,1.8z" clip-rule="evenodd" fill-rule="evenodd"/>
  <path id="svg_85" fill="#DDDDFC" d="m366.303,263.102l-0.032,-0.238c0.004,0.079 0.015,0.157 0.032,0.238z" clip-rule="evenodd" fill-rule="evenodd"/>
  <path id="svg_86" fill="#DDDDFC" d="m366.268,262.851l0.003,0.013l0,-0.013l-0.003,0z" clip-rule="evenodd" fill-rule="evenodd"/>
  <path id="svg_87" fill="#DDDDFC" d="m392.676,264.587l-10.048,5.539c-1.815,1 -2.991,0.904 -4.495,0.118l-10.816,-5.928c-0.611,-0.36 -0.917,-0.784 -1.014,-1.215l0.115,0.855c0.077,0.436 0.464,0.799 0.943,1.082l10.816,5.928c1.502,0.785 2.679,0.882 4.494,-0.119l10.048,-5.54c0.62,-0.341 1.214,-0.582 1.274,-1.267l0.081,-1.256l-0.004,0c-0.032,0.689 -0.533,1.328 -1.394,1.803z" clip-rule="evenodd" fill-rule="evenodd"/>
  <path id="svg_88" fill="#DDDDFC" d="m373.056,253.421l-10.048,5.539c-1.815,1.001 -2.992,0.905 -4.497,0.119l-10.815,-5.927c-0.611,-0.361 -0.917,-0.786 -1.013,-1.217l0.115,0.856c0.076,0.435 0.464,0.799 0.942,1.081l10.815,5.928c1.503,0.786 2.681,0.882 4.497,-0.119l10.048,-5.539c0.619,-0.342 1.212,-0.582 1.271,-1.266l0.082,-1.256l-0.005,0c-0.03,0.687 -0.531,1.326 -1.392,1.801z" clip-rule="evenodd" fill-rule="evenodd"/>
  <path id="svg_89" fill="#DDDDFC" d="m482.685,352.188l-0.031,-0.238c0.004,0.081 0.014,0.159 0.031,0.238z" clip-rule="evenodd" fill-rule="evenodd"/>
  <path id="svg_90" fill="#DDDDFC" d="m482.652,351.938l0.002,0.013l0,-0.013l-0.002,0z" clip-rule="evenodd" fill-rule="evenodd"/>
  <path id="svg_91" fill="#DDDDFC" d="m509.059,353.673l-10.048,5.539c-1.815,1 -2.992,0.905 -4.495,0.12l-10.817,-5.927c-0.61,-0.363 -0.917,-0.786 -1.014,-1.217l0.116,0.854c0.076,0.436 0.464,0.8 0.941,1.084l10.817,5.926c1.502,0.786 2.68,0.882 4.494,-0.118l10.049,-5.539c0.62,-0.342 1.212,-0.583 1.273,-1.268l0.082,-1.254l-0.005,0c-0.032,0.687 -0.532,1.325 -1.393,1.8z" clip-rule="evenodd" fill-rule="evenodd"/>
  <path id="svg_92" fill="#DDDDFC" d="m462.85,341.183l-0.033,-0.238c0.005,0.079 0.016,0.158 0.033,0.238z" clip-rule="evenodd" fill-rule="evenodd"/>
  <path id="svg_93" fill="#DDDDFC" d="m462.816,340.932l0.001,0.013c0.001,-0.004 0,-0.009 0,-0.013l-0.001,0z" clip-rule="evenodd" fill-rule="evenodd"/>
  <path id="svg_94" fill="#DDDDFC" d="m489.223,342.668l-10.048,5.539c-1.814,1 -2.991,0.904 -4.496,0.118l-10.815,-5.927c-0.61,-0.361 -0.918,-0.785 -1.014,-1.215l0.115,0.853c0.076,0.437 0.463,0.8 0.942,1.084l10.816,5.927c1.503,0.785 2.68,0.882 4.494,-0.119l10.05,-5.539c0.619,-0.342 1.212,-0.582 1.271,-1.268l0.082,-1.255l-0.004,0.001c-0.031,0.688 -0.532,1.326 -1.393,1.801z" clip-rule="evenodd" fill-rule="evenodd"/>
  <path id="svg_95" fill="#DDDDFC" d="m469.602,331.502l-10.047,5.539c-1.814,1.001 -2.993,0.905 -4.496,0.119l-88.982,-50.63c-0.611,-0.361 -0.918,-0.786 -1.014,-1.216l0.115,0.854c0.076,0.436 0.464,0.799 0.942,1.082l88.983,50.631c1.502,0.787 2.68,0.881 4.495,-0.118l10.049,-5.54c0.618,-0.342 1.211,-0.582 1.272,-1.267l0.081,-1.255l-0.006,0c-0.029,0.688 -0.531,1.326 -1.392,1.801z" clip-rule="evenodd" fill-rule="evenodd"/>
  <path id="svg_96" fill="#DDDDFC" d="m424.091,318.446l-0.033,-0.237c0.005,0.08 0.016,0.158 0.033,0.237z" clip-rule="evenodd" fill-rule="evenodd"/>
  <path id="svg_97" fill="#DDDDFC" d="m424.057,318.196l0.001,0.013c0,-0.005 0.001,-0.009 0,-0.013l-0.001,0z" clip-rule="evenodd" fill-rule="evenodd"/>
  <path id="svg_98" fill="#DDDDFC" d="m404.255,307.441l-0.033,-0.238c0.005,0.079 0.016,0.158 0.033,0.238z" clip-rule="evenodd" fill-rule="evenodd"/>
  <path id="svg_99" fill="#DDDDFC" d="m404.221,307.19l0.001,0.013l0,-0.013l-0.001,0z" clip-rule="evenodd" fill-rule="evenodd"/>
  <path id="svg_100" fill="#DDDDFC" d="m365.063,285.272l-0.031,-0.237c0.003,0.08 0.014,0.158 0.031,0.237z" clip-rule="evenodd" fill-rule="evenodd"/>
  <path id="svg_101" fill="#DDDDFC" d="m365.029,285.022l0.003,0.013c-0.002,-0.005 0,-0.009 -0.002,-0.013l-0.001,0z" clip-rule="evenodd" fill-rule="evenodd"/>
  <path id="svg_102" fill="#DDDDFC" d="m345.228,274.267l-0.033,-0.238c0.004,0.079 0.015,0.158 0.033,0.238z" clip-rule="evenodd" fill-rule="evenodd"/>
  <path id="svg_103" fill="#DDDDFC" d="m345.194,274.016l0.001,0.013l0,-0.013l-0.001,0z" clip-rule="evenodd" fill-rule="evenodd"/>
  <path id="svg_104" fill="#DDDDFC" d="m371.6,275.751l-10.047,5.54c-1.815,1.001 -2.993,0.904 -4.496,0.118l-10.816,-5.927c-0.61,-0.361 -0.917,-0.785 -1.013,-1.215l0.114,0.853c0.077,0.438 0.464,0.8 0.942,1.083l10.817,5.928c1.503,0.786 2.679,0.882 4.494,-0.119l10.049,-5.54c0.62,-0.342 1.213,-0.581 1.272,-1.267l0.082,-1.255l-0.004,0c-0.031,0.689 -0.533,1.327 -1.394,1.801z" clip-rule="evenodd" fill-rule="evenodd"/>
  <path id="svg_105" fill="#DDDDFC" d="m351.981,264.586l-10.048,5.539c-1.815,1.001 -2.993,0.905 -4.496,0.119l-10.816,-5.927c-0.611,-0.361 -0.918,-0.786 -1.014,-1.217l0.115,0.856c0.076,0.435 0.464,0.799 0.942,1.082l10.816,5.928c1.503,0.785 2.68,0.881 4.496,-0.12l10.048,-5.54c0.619,-0.34 1.212,-0.581 1.272,-1.266l0.081,-1.255l-0.004,0c-0.031,0.688 -0.531,1.326 -1.392,1.801z" clip-rule="evenodd" fill-rule="evenodd"/>
  <path id="svg_106" fill="#C86DD7" d="m415.805,13.3281l0.072,167.0499c0.217,6.145 4.988,7.844 4.988,7.844l191.59,107.618c0,0 2.494,1.351 5.426,1.713c1.719,0.212 3.589,0.085 5.194,-0.857c0.161,-0.095 0.317,-0.19 0.461,-0.298c3.428,-2.568 3.387,-9.053 3.387,-9.053l0,-162.863c-0.35,-7.022 -6.495,-9.631 -6.495,-9.631l-197.578,-108.70766c0,0 -3.811,-2.06213 -5.476,-0.24662c-1.771,1.93047 -1.569,3.10783 -1.569,7.43138z" clip-rule="evenodd" fill-rule="evenodd"/>
  <path id="svg_107" fill="#B6B6DD" d="m595.894,334.398l6.874,-3.936c1.066,-0.61 1.694,-2.076 1.103,-3.116c0.671,0.082 1.298,0.443 1.672,1.045c0.646,1.044 0.011,2.553 -1.074,3.174l-6.872,3.936c-0.635,0.363 -1.377,0.389 -2.013,0.146c-0.453,-0.173 -0.855,-0.476 -1.124,-0.909c-0.012,-0.018 -0.02,-0.038 -0.031,-0.058c0.491,0.065 1.007,-0.019 1.465,-0.282z" clip-rule="evenodd" fill-rule="evenodd"/>
  <path id="svg_108" fill="#C7C7EA" d="m595.533,331.565l6.873,-3.936c0.372,-0.213 0.783,-0.305 1.187,-0.302c0.093,0 0.185,0.007 0.277,0.019c0.592,1.04 -0.037,2.507 -1.102,3.116l-6.874,3.936c-0.459,0.263 -0.974,0.347 -1.465,0.282c-0.59,-1.04 0.039,-2.505 1.104,-3.115z" clip-rule="evenodd" fill-rule="evenodd"/>
  <path id="svg_109" fill="white" d="m468.46,47.2251l0,159.1069l104.305,57.432l0,-159.108l-104.305,-57.4309z" clip-rule="evenodd" fill-rule="evenodd"/>
  <path id="svg_110" fill="#DDDDFC" d="m468.46,58.9457l104.305,57.4303l0,57.726l-104.305,-57.432l0,-57.7243z" clip-rule="evenodd" fill-rule="evenodd"/>
  <path id="svg_111" fill="#DDDDFC" d="m481.017,156.165l0,15.325l20.696,11.335l0,-15.114l-20.696,-11.546z" clip-rule="evenodd" fill-rule="evenodd"/>
  <path id="svg_112" fill="#DDDDFC" d="m493.326,139.635l0,4.513l53.342,29.65l0,-4.303l-53.342,-29.86z" clip-rule="evenodd" fill-rule="evenodd"/>
  <path id="svg_113" fill="#DDDDFC" d="m502.34,152.414l0,3.751l35.508,19.504l0,-3.542l-35.508,-19.713z" clip-rule="evenodd" fill-rule="evenodd"/>
  <path id="svg_114" fill="#DDDDFC" d="m481.017,173.798l0,1.994l20.696,11.336l0,-1.784l-20.696,-11.546z" clip-rule="evenodd" fill-rule="evenodd"/>
  <path id="svg_115" fill="#DDDDFC" d="m481.017,178.546l0,1.994l16.462,9.113l0,-1.785l-16.462,-9.322z" clip-rule="evenodd" fill-rule="evenodd"/>
  <path id="svg_116" fill="#DDDDFC" d="m509.027,171.668l0,15.324l20.696,11.336l0,-15.115l-20.696,-11.545z" clip-rule="evenodd" fill-rule="evenodd"/>
  <path id="svg_117" fill="#DDDDFC" d="m509.027,189.301l0,1.994l20.696,11.336l0,-1.784l-20.696,-11.546z" clip-rule="evenodd" fill-rule="evenodd"/>
  <path id="svg_118" fill="#DDDDFC" d="m509.027,193.698l0,1.992l16.464,9.114l0,-1.785l-16.464,-9.321z" clip-rule="evenodd" fill-rule="evenodd"/>
  <path id="svg_119" fill="#DDDDFC" d="m536.942,187.171l0,15.324l20.696,11.336l0,-15.115l-20.696,-11.545z" clip-rule="evenodd" fill-rule="evenodd"/>
  <path id="svg_120" fill="#DDDDFC" d="m536.996,225.987l0,7.266l18.256,9.996l0,-7.055l-18.256,-10.207z" clip-rule="evenodd" fill-rule="evenodd"/>
  <path id="svg_121" fill="#DDDDFC" d="m536.942,204.804l0,1.994l20.696,11.336l0,-1.784l-20.696,-11.546z" clip-rule="evenodd" fill-rule="evenodd"/>
  <path id="svg_122" fill="#DDDDFC" d="m536.996,209.17l0,1.994l16.463,9.113l0,-1.784l-16.463,-9.323z" clip-rule="evenodd" fill-rule="evenodd"/>
  <path id="svg_123" fill="#E4E4F4" d="m536.996,225.987l1.312,-0.64l18.033,10.205l-1.089,0.642l-18.256,-10.207z" clip-rule="evenodd" fill-rule="evenodd"/>
  <path id="svg_124" fill="#CECEEF" d="m555.251,236.194l1.09,-0.642l0,7.055l-1.09,0.642l0,-7.055z" clip-rule="evenodd" fill-rule="evenodd"/>
  <path id="svg_125" fill="#E8F0F4" d="m474.63,55.5211c0.849,-0.6755 2.171,-0.4829 2.952,0.4291c0.782,0.9119 0.728,2.1993 -0.12,2.8747c-0.85,0.6754 -2.171,0.4835 -2.953,-0.4284c-0.782,-0.9127 -0.728,-2.1993 0.121,-2.8754z" clip-rule="evenodd" fill-rule="evenodd"/>
  <path id="svg_126" fill="#DDDDFC" d="m244.615,221.113c0,0 -110.398,61.626 -114.021,63.647c-6.329,3.53 -12.011,-0.551 -12.011,-0.551l-71.9666,-39.987c0,0 -2.0778,-0.913 -2.1221,-3.245c-0.0021,-0.011 -0.005,-0.022 -0.005,-0.032l0,3.889c0,1.686 2.5612,3.103 2.5612,3.103l72.1395,40.785c0,0 5.499,3.613 11.818,0.011c3.603,-2.054 113.607,-64.257 113.607,-64.257c0,0 3.348,-1.551 3.348,-4.31l0,-2.456c-0.239,2.014 -3.348,3.403 -3.348,3.403z" clip-rule="evenodd" fill-rule="evenodd"/>
  <path id="svg_127" fill="#F6F6FF" d="m243.479,212.886l-68.206,-38.643c0,0 -5.926,-4.19 -12.724,-0.363l-115.82,63.795c0,0 -2.2397,1.042 -2.2397,3.229c0,0.025 0.0029,0.049 0.0051,0.073c0.0443,2.332 2.122,3.245 2.122,3.245l71.9666,39.987c0,0 5.682,4.081 12.011,0.551c3.623,-2.021 114.021,-63.647 114.021,-63.647c0,0 3.109,-1.39 3.348,-3.403c0.275,-2.303 -4.484,-4.824 -4.484,-4.824z" clip-rule="evenodd" fill-rule="evenodd"/>
  <path id="svg_128" fill="#C86DD7" d="m237.109,217.96l-97.992,54.551l-70.253,-39.067l97.39,-55.061l70.855,39.577z" clip-rule="evenodd" fill-rule="evenodd"/>
  <path id="svg_129" fill="#D8D8D8" d="m87.0671,257.735c0,-1.665 2.3158,-3.015 5.1726,-3.015c2.8552,0 5.1726,1.35 5.1726,3.015c0,1.667 -2.3174,3.018 -5.1726,3.018c-2.8568,0 -5.1726,-1.351 -5.1726,-3.018zm-0.408,0c0,1.798 2.4981,3.256 5.5806,3.256c3.081,0 5.5791,-1.458 5.5791,-3.256c0,-1.796 -2.4981,-3.253 -5.5791,-3.253c-3.0825,0 -5.5806,1.457 -5.5806,3.253z" clip-rule="evenodd" fill-rule="evenodd"/>
  <path id="svg_130" fill="white" d="m274.177,107.274l0.06,1.166c0.468,7.736 4.336,51.366 32.349,58.992c22.459,5.617 28.815,-2.507 29.536,-3.569l3.337,-65.7347l-65.745,0l0.463,9.1327l0,0.013z" clip-rule="evenodd" fill-rule="evenodd"/>
  <path id="svg_131" fill="#F6F6FF" d="m306.586,167.432c-28.013,-7.626 -31.881,-51.256 -32.35,-58.991l3.041,59.881c0,9.095 13.121,16.47 29.309,16.47c16.187,0 29.31,-7.375 29.31,-16.47l0.226,-4.459c-0.72,1.062 -7.078,9.187 -29.536,3.569z" clip-rule="evenodd" fill-rule="evenodd"/>
  <path id="svg_132" fill="#F0F0FC" d="m306.586,178.86c-15.463,0 -28.167,-6.632 -29.608,-15.109c-0.09,0.53 -0.14,1.065 -0.14,1.608c0,9.233 13.319,16.718 29.748,16.718c16.43,0 29.749,-7.485 29.749,-16.718c0,-0.543 -0.05,-1.078 -0.14,-1.608c-1.44,8.477 -14.144,15.109 -29.609,15.109z" clip-rule="evenodd" fill-rule="evenodd"/>
  <path id="svg_133" fill="white" d="m338.763,96.0082c0,9.9868 -14.406,18.0828 -32.177,18.0828c-17.771,0 -32.178,-8.096 -32.178,-18.0828c0,-9.987 14.407,-18.0817 32.178,-18.0817c17.771,0 32.177,8.0947 32.177,18.0817z" clip-rule="evenodd" fill-rule="evenodd"/>
  <path id="svg_134" fill="#F0F0FC" d="m306.586,119.224c-17.026,0 -31.014,-7.302 -32.6,-16.638c-0.1,0.584 -0.155,1.175 -0.155,1.772c0,10.166 14.665,18.408 32.755,18.408c18.089,0 32.756,-8.242 32.756,-18.408c0,-0.597 -0.056,-1.188 -0.155,-1.772c-1.586,9.336 -15.574,16.638 -32.601,16.638z" clip-rule="evenodd" fill-rule="evenodd"/>
  <path id="svg_135" fill="#FCFCFC" d="m306.586,103.783c-16.719,0 -30.453,-7.1701 -32.01,-16.3365c-0.098,0.5728 -0.151,1.1526 -0.151,1.7402c0,9.9814 14.398,18.0743 32.161,18.0743c17.763,0 32.163,-8.0929 32.163,-18.0743c0,-0.5876 -0.055,-1.1674 -0.151,-1.7402c-1.559,9.1664 -15.295,16.3365 -32.012,16.3365z" clip-rule="evenodd" fill-rule="evenodd"/>
  <path id="svg_136" fill="white" d="m307.237,113.725c12.481,1.126 20.101,-0.632 24.738,-3c3.049,-1.939 5.403,-4.228 6.85,-6.748c0.149,-0.384 0.199,-0.61 0.199,-0.61c0,0 0.036,0.019 0.103,0.051c0.862,-1.679 1.335,-3.4531 1.335,-5.2897c0,-10.5141 -15.167,-19.0366 -33.876,-19.0366c-15.009,0 -27.731,5.4882 -32.178,13.086c-0.016,0.5292 -0.324,18.9673 32.829,21.5473z" clip-rule="evenodd" fill-rule="evenodd"/>
  <path id="svg_137" fill="#F6F6FF" d="m306.586,117.165c10.112,0 19.183,-2.492 25.39,-6.441c-4.638,2.369 -12.258,4.127 -24.739,3.001c-33.154,-2.581 -32.844,-21.0176 -32.829,-21.5475c-1.097,1.8726 -1.697,3.8725 -1.697,5.9513c0,10.5132 15.167,19.0362 33.875,19.0362z" clip-rule="evenodd" fill-rule="evenodd"/>
  <path id="svg_138" fill="white" d="m338.594,89.4549c0,9.9342 -14.33,17.9881 -32.008,17.9881c-17.678,0 -32.009,-8.0539 -32.009,-17.9881c0,-9.9349 14.331,-17.9881 32.009,-17.9881c17.678,0 32.008,8.0532 32.008,17.9881z" clip-rule="evenodd" fill-rule="evenodd"/>
  <path id="svg_139" fill="#F7F7F7" d="m306.586,71.6765c-17.53,0 -31.792,7.975 -31.792,17.7783c0,9.8033 14.262,17.7782 31.792,17.7782c17.531,0 31.792,-7.9749 31.792,-17.7782c0,-9.8033 -14.261,-17.7783 -31.792,-17.7783zm0,35.9745c-17.769,0 -32.225,-8.162 -32.225,-18.1962c0,-10.0341 14.456,-18.197 32.225,-18.197c17.769,0 32.225,8.1629 32.225,18.197c0,10.0342 -14.456,18.1962 -32.225,18.1962z" clip-rule="evenodd" fill-rule="evenodd"/>
  <path id="svg_140" fill="#DADEE0" d="m304.417,100.151l7.138,0c0.179,0 0.35,0.037 0.504,0.103c0,-0.014 0.003,-0.028 0.003,-0.042c0,-0.6722 -0.562,-1.2175 -1.255,-1.2175l-7.139,0c-0.694,0 -1.256,0.5453 -1.256,1.2175c0,0.499 0.31,0.927 0.752,1.115c0.023,-0.652 0.573,-1.176 1.253,-1.176z" clip-rule="evenodd" fill-rule="evenodd"/>
  <path id="svg_141" fill="#E8E8E8" d="m310.806,101.43c0.68,0 1.23,-0.523 1.253,-1.176c-0.154,-0.066 -0.325,-0.103 -0.504,-0.103l-7.138,0c-0.679,0 -1.23,0.523 -1.252,1.177c0.154,0.065 0.324,0.102 0.503,0.102l7.138,0z" clip-rule="evenodd" fill-rule="evenodd"/>
 </g>
</svg>